<?xml version="1.0" encoding="utf-8"?>
<!-- Generator: Adobe Illustrator 15.0.2, SVG Export Plug-In . SVG Version: 6.00 Build 0)  -->
<!DOCTYPE svg PUBLIC "-//W3C//DTD SVG 1.1//EN" "http://www.w3.org/Graphics/SVG/1.1/DTD/svg11.dtd">
<svg version="1.1" id="Layer_1" xmlns="http://www.w3.org/2000/svg" xmlns:xlink="http://www.w3.org/1999/xlink" x="0px" y="0px"
	 width="600px" height="400px" viewBox="0 0 600 400" enable-background="new 0 0 600 400" xml:space="preserve">
<g>
	<path fill="#D29E51" d="M142.052,204.411h13.723c2.364,0,4.46,0.287,6.288,0.859c1.828,0.573,3.36,1.378,4.597,2.415
		c1.237,1.036,2.178,2.282,2.824,3.737c0.645,1.455,0.968,3.074,0.968,4.856s-0.323,3.405-0.968,4.869
		c-0.646,1.464-1.587,2.724-2.824,3.779c-1.236,1.055-2.769,1.868-4.597,2.441s-3.924,0.858-6.288,0.858h-5.593v13.287h-8.13
		V204.411z M150.182,210.358v11.923h4.993c4.638,0,6.957-2.001,6.957-6.002c0-2.037-0.578-3.534-1.732-4.489
		c-1.155-0.953-2.896-1.432-5.224-1.432H150.182z"/>
	<path fill="#D29E51" d="M175.854,214.232h6.875l0.791,3.738c1.073-1.564,2.229-2.669,3.465-3.315
		c1.236-0.646,2.555-0.967,3.956-0.967c0.363,0,0.746,0.008,1.146,0.026c0.4,0.018,0.782,0.044,1.146,0.08l-0.464,6.603
		c-0.474-0.09-0.946-0.148-1.418-0.177c-0.473-0.027-1.01-0.041-1.61-0.041c-1.11,0-2.133,0.314-3.069,0.941
		c-0.937,0.629-1.805,1.46-2.605,2.497v17.896h-8.212V214.232z"/>
	<path fill="#D29E51" d="M195.714,227.873c0-2.199,0.346-4.174,1.037-5.92s1.664-3.232,2.919-4.461
		c1.255-1.227,2.759-2.168,4.514-2.823c1.756-0.654,3.688-0.98,5.798-0.98c2.128,0,4.065,0.326,5.811,0.98
		c1.746,0.655,3.247,1.597,4.501,2.823c1.256,1.229,2.228,2.715,2.919,4.461s1.037,3.721,1.037,5.92c0,2.22-0.345,4.202-1.037,5.948
		s-1.664,3.233-2.919,4.46c-1.254,1.229-2.755,2.164-4.501,2.81c-1.746,0.646-3.683,0.97-5.811,0.97c-2.11,0-4.042-0.323-5.798-0.97
		c-1.755-0.646-3.259-1.581-4.514-2.81c-1.256-1.227-2.229-2.714-2.919-4.46S195.714,230.093,195.714,227.873z M203.899,227.873
		c0,1.511,0.15,2.788,0.45,3.834s0.719,1.895,1.256,2.551c0.536,0.654,1.177,1.128,1.923,1.418c0.745,0.292,1.564,0.438,2.455,0.438
		s1.714-0.146,2.469-0.438c0.755-0.29,1.4-0.764,1.937-1.418c0.537-0.656,0.956-1.505,1.255-2.551
		c0.3-1.046,0.451-2.323,0.451-3.834c0-1.491-0.15-2.759-0.451-3.806c-0.3-1.045-0.719-1.896-1.255-2.55
		c-0.536-0.655-1.182-1.133-1.937-1.434c-0.755-0.299-1.578-0.45-2.469-0.45s-1.71,0.151-2.455,0.45
		c-0.746,0.301-1.387,0.778-1.923,1.434c-0.537,0.653-0.956,1.505-1.256,2.55C204.049,225.114,203.899,226.382,203.899,227.873z"/>
	<path fill="#D29E51" d="M223.352,247.488c0.218,0.056,0.49,0.11,0.818,0.165c0.328,0.054,0.682,0.107,1.064,0.163
		c0.382,0.054,0.782,0.1,1.2,0.137c0.418,0.036,0.819,0.054,1.2,0.054c0.69,0,1.282-0.077,1.774-0.231
		c0.491-0.154,0.895-0.409,1.213-0.764c0.318-0.355,0.55-0.828,0.695-1.419c0.146-0.592,0.219-1.314,0.219-2.17v-29.19h8.129v29.19
		c0,2.11-0.264,3.848-0.791,5.212c-0.528,1.365-1.251,2.442-2.168,3.233c-0.919,0.79-1.992,1.346-3.22,1.663
		c-1.228,0.319-2.542,0.479-3.941,0.479c-0.583,0-1.201-0.027-1.856-0.083c-0.654-0.054-1.305-0.137-1.95-0.245
		c-0.645-0.109-1.259-0.231-1.841-0.368c-0.582-0.137-1.073-0.286-1.473-0.45L223.352,247.488z M231.399,203.266h8.348v5.784h-8.348
		V203.266z"/>
	<path fill="#D29E51" d="M253.961,229.646c0.254,2.093,0.991,3.693,2.209,4.802c1.219,1.109,2.901,1.665,5.047,1.665
		c1.546,0,2.938-0.114,4.174-0.342c1.237-0.227,2.292-0.469,3.165-0.723l1.637,4.856c-1.146,0.691-2.519,1.223-4.119,1.596
		c-1.601,0.372-3.338,0.56-5.21,0.56c-2.384,0-4.511-0.314-6.385-0.941c-1.873-0.628-3.46-1.537-4.76-2.729
		c-1.3-1.19-2.296-2.65-2.988-4.379c-0.691-1.728-1.036-3.7-1.036-5.92c0-2.273,0.332-4.307,0.996-6.097
		c0.664-1.792,1.605-3.303,2.824-4.529c1.218-1.229,2.687-2.164,4.406-2.811c1.718-0.646,3.633-0.967,5.742-0.967
		c1.637,0,3.169,0.263,4.597,0.789c1.428,0.529,2.674,1.274,3.738,2.237c1.064,0.964,1.905,2.12,2.523,3.465
		c0.618,1.346,0.927,2.847,0.927,4.503v4.964H253.961z M259.309,219.308c-0.692,0-1.319,0.087-1.882,0.259
		c-0.564,0.173-1.069,0.468-1.515,0.886c-0.446,0.419-0.818,0.975-1.118,1.665c-0.301,0.691-0.532,1.546-0.696,2.565h9.848
		c0-0.983-0.127-1.819-0.382-2.512c-0.254-0.69-0.596-1.245-1.023-1.663c-0.427-0.418-0.918-0.723-1.474-0.915
		C260.513,219.403,259.926,219.308,259.309,219.308z"/>
	<path fill="#D29E51" d="M276.059,227.82c0-2.146,0.332-4.088,0.996-5.825c0.664-1.738,1.614-3.22,2.851-4.447
		c1.236-1.228,2.732-2.178,4.488-2.852c1.754-0.673,3.724-1.008,5.906-1.008c1.764,0,3.278,0.135,4.542,0.407
		s2.342,0.628,3.233,1.064l-1.501,5.348c-0.654-0.255-1.364-0.464-2.127-0.628c-0.764-0.163-1.71-0.246-2.837-0.246
		c-1.091,0-2.078,0.16-2.96,0.479c-0.883,0.318-1.637,0.809-2.265,1.473c-0.627,0.665-1.11,1.511-1.446,2.537
		c-0.337,1.028-0.504,2.26-0.504,3.698c0,1.435,0.167,2.671,0.504,3.709c0.336,1.036,0.819,1.896,1.446,2.579
		c0.628,0.681,1.382,1.187,2.265,1.512c0.882,0.328,1.869,0.493,2.96,0.493c0.655,0,1.25-0.022,1.787-0.069
		c0.537-0.045,1.027-0.112,1.473-0.204c0.446-0.091,0.864-0.195,1.255-0.313c0.391-0.118,0.777-0.251,1.159-0.396l1.119,5.156
		c-0.892,0.51-1.969,0.934-3.233,1.269c-1.264,0.337-2.814,0.506-4.651,0.506c-2.219,0-4.22-0.342-6.002-1.023
		c-1.783-0.683-3.301-1.646-4.556-2.892c-1.255-1.246-2.22-2.742-2.892-4.488C276.395,231.911,276.059,229.965,276.059,227.82z"/>
	<path fill="#D29E51" d="M300.912,214.232h3.955v-7.094l8.158-0.545v7.639h7.693v5.102h-7.693v12.332
		c0,1.455,0.273,2.473,0.818,3.056c0.546,0.581,1.474,0.873,2.782,0.873c0.802,0,1.551-0.055,2.251-0.164
		c0.701-0.108,1.305-0.218,1.814-0.328l0.654,5.676c-0.399,0.146-0.855,0.276-1.363,0.395c-0.51,0.119-1.047,0.219-1.61,0.301
		c-0.563,0.081-1.136,0.15-1.719,0.203c-0.581,0.056-1.146,0.083-1.691,0.083c-1.582,0-2.997-0.149-4.242-0.45
		c-1.246-0.299-2.301-0.828-3.165-1.582c-0.863-0.755-1.527-1.782-1.991-3.083c-0.463-1.3-0.696-2.96-0.696-4.979v-12.332h-4.228
		L300.912,214.232z"/>
	<path fill="#D29E51" d="M339.87,204.411h8.131v31.102h14.54v6.002H339.87V204.411z"/>
	<path fill="#D29E51" d="M365.597,227.873c0-2.199,0.346-4.174,1.038-5.92c0.69-1.746,1.663-3.232,2.919-4.461
		c1.253-1.227,2.758-2.168,4.514-2.823c1.756-0.654,3.688-0.98,5.798-0.98c2.127,0,4.065,0.326,5.812,0.98
		c1.746,0.655,3.245,1.597,4.501,2.823c1.255,1.229,2.229,2.715,2.919,4.461c0.691,1.746,1.036,3.721,1.036,5.92
		c0,2.22-0.345,4.202-1.036,5.948c-0.69,1.746-1.664,3.233-2.919,4.46c-1.256,1.229-2.755,2.164-4.501,2.81
		c-1.746,0.646-3.685,0.97-5.812,0.97c-2.109,0-4.042-0.323-5.798-0.97c-1.756-0.646-3.261-1.581-4.514-2.81
		c-1.256-1.227-2.229-2.714-2.919-4.46C365.942,232.075,365.597,230.093,365.597,227.873z M373.782,227.873
		c0,1.511,0.148,2.788,0.449,3.834c0.3,1.046,0.718,1.895,1.255,2.551c0.537,0.654,1.178,1.128,1.924,1.418
		c0.745,0.292,1.563,0.438,2.455,0.438c0.891,0,1.714-0.146,2.469-0.438c0.755-0.29,1.401-0.764,1.938-1.418
		c0.535-0.656,0.955-1.505,1.254-2.551c0.301-1.046,0.451-2.323,0.451-3.834c0-1.491-0.15-2.759-0.451-3.806
		c-0.299-1.045-0.719-1.896-1.254-2.55c-0.536-0.655-1.183-1.133-1.938-1.434c-0.755-0.299-1.578-0.45-2.469-0.45
		c-0.892,0-1.71,0.151-2.455,0.45c-0.746,0.301-1.387,0.778-1.924,1.434c-0.537,0.653-0.955,1.505-1.255,2.55
		C373.931,225.114,373.782,226.382,373.782,227.873z"/>
	<path fill="#D29E51" d="M399.071,223.891c0-1.619,0.317-3.061,0.954-4.324c0.637-1.265,1.536-2.333,2.701-3.207
		c1.163-0.872,2.552-1.534,4.161-1.991c1.609-0.454,3.387-0.68,5.333-0.68c1.69,0,3.283,0.181,4.773,0.544h10.531l-0.464,3.82
		h-3.628c0.618,0.799,1.09,1.682,1.418,2.646c0.328,0.966,0.49,2.029,0.49,3.192c0,1.6-0.317,3.006-0.953,4.215
		c-0.638,1.21-1.533,2.224-2.688,3.042c-1.153,0.818-2.536,1.432-4.146,1.842c-1.61,0.408-3.388,0.612-5.334,0.612
		c-0.691,0-1.364-0.025-2.019-0.081c-0.655-0.055-1.292-0.127-1.91-0.217c-0.236,0.289-0.418,0.612-0.545,0.967
		c-0.129,0.355-0.191,0.778-0.191,1.27c0,0.364,0.063,0.746,0.191,1.146c0.127,0.398,0.309,0.754,0.545,1.063h6.711
		c2.22,0,4.097,0.213,5.634,0.641c1.537,0.427,2.773,1.022,3.711,1.788c0.937,0.763,1.613,1.671,2.032,2.727
		c0.419,1.055,0.618,2.21,0.601,3.466c-0.055,1.326-0.46,2.519-1.215,3.573c-0.755,1.054-1.792,1.954-3.11,2.7
		s-2.883,1.318-4.692,1.719s-3.787,0.601-5.934,0.601c-1.128,0-2.264-0.05-3.409-0.149c-1.146-0.101-2.261-0.265-3.342-0.491
		c-1.083-0.228-2.097-0.533-3.042-0.914c-0.947-0.382-1.77-0.858-2.471-1.432c-0.699-0.573-1.253-1.242-1.663-2.006
		c-0.408-0.764-0.614-1.654-0.614-2.674c0-1.236,0.386-2.36,1.16-3.368c0.772-1.011,2.014-1.905,3.724-2.688
		c-0.455-0.51-0.854-1.097-1.201-1.76c-0.345-0.665-0.518-1.434-0.518-2.306c0-0.618,0.077-1.178,0.231-1.679
		c0.155-0.5,0.373-0.964,0.655-1.39c0.281-0.428,0.617-0.828,1.01-1.201c0.391-0.372,0.832-0.724,1.323-1.051
		c-1.51-0.8-2.688-1.858-3.534-3.178C399.493,227.36,399.071,225.764,399.071,223.891z M407.501,243.069
		c-0.564,0.4-0.982,0.85-1.255,1.351c-0.272,0.5-0.41,1.141-0.41,1.923c0,0.672,0.232,1.209,0.696,1.61
		c0.464,0.4,1.027,0.704,1.692,0.913c0.663,0.209,1.354,0.346,2.073,0.409c0.717,0.064,1.341,0.096,1.868,0.096
		c1.073,0,2.032-0.091,2.878-0.272c0.846-0.183,1.564-0.432,2.156-0.751c0.59-0.317,1.041-0.69,1.35-1.118
		c0.31-0.427,0.463-0.895,0.463-1.404c0-0.382-0.066-0.741-0.204-1.077c-0.136-0.338-0.386-0.629-0.749-0.874
		c-0.365-0.245-0.859-0.44-1.487-0.586c-0.628-0.146-1.433-0.219-2.414-0.219H407.501z M407.283,223.891
		c0,1.455,0.409,2.574,1.227,3.356c0.818,0.782,2.057,1.173,3.711,1.173c1.655,0,2.887-0.391,3.696-1.173s1.214-1.901,1.214-3.356
		c0-1.527-0.432-2.673-1.296-3.438c-0.863-0.763-2.068-1.145-3.614-1.145s-2.756,0.382-3.628,1.145
		C407.721,221.218,407.283,222.363,407.283,223.891z"/>
	<path fill="#D29E51" d="M430.908,227.873c0-2.199,0.347-4.174,1.037-5.92c0.692-1.746,1.664-3.232,2.92-4.461
		c1.254-1.227,2.759-2.168,4.515-2.823c1.754-0.654,3.688-0.98,5.797-0.98c2.128,0,4.065,0.326,5.812,0.98
		c1.746,0.655,3.246,1.597,4.502,2.823c1.255,1.229,2.228,2.715,2.919,4.461c0.69,1.746,1.036,3.721,1.036,5.92
		c0,2.22-0.346,4.202-1.036,5.948c-0.691,1.746-1.664,3.233-2.919,4.46c-1.256,1.229-2.756,2.164-4.502,2.81
		c-1.746,0.646-3.684,0.97-5.812,0.97c-2.108,0-4.043-0.323-5.797-0.97c-1.756-0.646-3.261-1.581-4.515-2.81
		c-1.256-1.227-2.228-2.714-2.92-4.46C431.255,232.075,430.908,230.093,430.908,227.873z M439.093,227.873
		c0,1.511,0.15,2.788,0.45,3.834c0.301,1.046,0.719,1.895,1.256,2.551c0.536,0.654,1.176,1.128,1.922,1.418
		c0.746,0.292,1.564,0.438,2.456,0.438c0.891,0,1.715-0.146,2.47-0.438c0.754-0.29,1.4-0.764,1.936-1.418
		c0.537-0.656,0.955-1.505,1.256-2.551c0.3-1.046,0.451-2.323,0.451-3.834c0-1.491-0.151-2.759-0.451-3.806
		c-0.301-1.045-0.719-1.896-1.256-2.55c-0.535-0.655-1.182-1.133-1.936-1.434c-0.755-0.299-1.579-0.45-2.47-0.45
		c-0.892,0-1.71,0.151-2.456,0.45c-0.746,0.301-1.386,0.778-1.922,1.434c-0.537,0.653-0.955,1.505-1.256,2.55
		C439.243,225.114,439.093,226.382,439.093,227.873z"/>
</g>
<g>
	<g>
		<path fill="#A86E44" d="M188.123,278.048h6.455c1.302,0,2.458,0.18,3.469,0.539c1.011,0.36,1.863,0.875,2.558,1.545
			c0.695,0.669,1.222,1.476,1.581,2.417c0.36,0.943,0.54,1.996,0.54,3.163c0,1.165-0.18,2.223-0.54,3.171
			c-0.359,0.948-0.886,1.762-1.581,2.437c-0.694,0.676-1.546,1.2-2.558,1.572c-1.011,0.372-2.167,0.558-3.469,0.558h-3.962v9.896
			h-2.493V278.048z M190.615,280.095v11.31h3.597c0.932,0,1.771-0.115,2.516-0.345c0.746-0.229,1.382-0.577,1.911-1.042
			c0.528-0.466,0.932-1.054,1.211-1.767c0.28-0.713,0.42-1.56,0.42-2.539c0-0.98-0.14-1.827-0.42-2.539
			c-0.279-0.714-0.683-1.296-1.211-1.748c-0.528-0.453-1.165-0.788-1.911-1.006c-0.745-0.216-1.584-0.324-2.516-0.324H190.615z"/>
		<path fill="#A86E44" d="M207.766,284.745h2.214l0.167,2.436c0.657-1.028,1.361-1.755,2.111-2.176
			c0.75-0.423,1.536-0.633,2.354-0.633c0.223,0,0.453,0.007,0.688,0.02c0.236,0.013,0.471,0.03,0.707,0.056l-0.279,2.491
			c-0.285-0.062-0.57-0.102-0.855-0.12s-0.607-0.027-0.967-0.027c-0.695,0-1.355,0.234-1.981,0.706
			c-0.626,0.473-1.193,1.085-1.701,1.843v14.006h-2.456V284.745z"/>
		<path fill="#A86E44" d="M219.186,294.044c0-1.499,0.174-2.846,0.521-4.036c0.348-1.19,0.84-2.203,1.479-3.042
			c0.639-0.836,1.42-1.479,2.344-1.924c0.924-0.447,1.962-0.67,3.116-0.67c1.141,0,2.186,0.223,3.134,0.67
			c0.949,0.445,1.762,1.088,2.438,1.924c0.675,0.839,1.202,1.852,1.581,3.042c0.378,1.19,0.567,2.537,0.567,4.036
			c0,1.514-0.189,2.864-0.567,4.056c-0.379,1.189-0.905,2.204-1.581,3.041c-0.676,0.838-1.489,1.477-2.438,1.917
			c-0.948,0.439-1.993,0.66-3.134,0.66c-1.153,0-2.192-0.221-3.116-0.66c-0.924-0.44-1.705-1.079-2.344-1.917
			c-0.639-0.837-1.131-1.852-1.479-3.041C219.36,296.908,219.186,295.558,219.186,294.044z M221.642,294.044
			c0,1.316,0.118,2.45,0.354,3.404c0.236,0.955,0.576,1.746,1.018,2.372c0.442,0.627,0.971,1.091,1.586,1.396
			c0.617,0.304,1.298,0.455,2.045,0.455c0.759,0,1.463-0.151,2.11-0.455c0.647-0.305,1.204-0.769,1.67-1.396
			c0.467-0.626,0.831-1.417,1.092-2.372c0.262-0.954,0.392-2.088,0.392-3.404c0-1.314-0.13-2.452-0.392-3.411
			c-0.262-0.962-0.625-1.756-1.092-2.382c-0.467-0.627-1.023-1.09-1.67-1.387s-1.351-0.445-2.11-0.445
			c-0.747,0-1.428,0.148-2.045,0.445c-0.615,0.297-1.144,0.76-1.586,1.387c-0.442,0.626-0.781,1.42-1.018,2.382
			C221.76,291.592,221.642,292.729,221.642,294.044z"/>
		<path fill="#A86E44" d="M235.462,308.776c0.161,0.05,0.351,0.094,0.567,0.131c0.218,0.037,0.444,0.071,0.679,0.102
			c0.236,0.032,0.471,0.057,0.708,0.075c0.235,0.018,0.458,0.028,0.67,0.028c0.446,0,0.839-0.082,1.181-0.242
			c0.341-0.161,0.625-0.429,0.855-0.8c0.229-0.372,0.403-0.866,0.521-1.479c0.118-0.614,0.177-1.373,0.177-2.277v-19.568h2.455
			v19.568c0,1.362-0.117,2.487-0.351,3.374c-0.233,0.888-0.572,1.589-1.015,2.103c-0.444,0.515-0.987,0.87-1.63,1.07
			c-0.644,0.198-1.375,0.297-2.193,0.297c-0.509,0-1.018-0.037-1.526-0.111c-0.508-0.075-0.955-0.18-1.339-0.316L235.462,308.776z
			 M240.429,277.267h3.032v2.938h-3.032V277.267z"/>
		<path fill="#A86E44" d="M251.105,293.747v0.446c0,1.179,0.111,2.232,0.335,3.162c0.223,0.931,0.558,1.714,1.004,2.354
			c0.446,0.639,1.007,1.126,1.684,1.46c0.675,0.335,1.46,0.502,2.353,0.502c0.582,0,1.11-0.04,1.581-0.12
			c0.471-0.081,0.898-0.18,1.283-0.298c0.384-0.119,0.726-0.245,1.023-0.381c0.297-0.137,0.563-0.267,0.8-0.392l0.688,1.896
			c-0.657,0.41-1.444,0.735-2.361,0.977c-0.918,0.243-1.904,0.364-2.958,0.364c-1.29,0-2.427-0.215-3.413-0.644
			c-0.985-0.427-1.814-1.046-2.483-1.858c-0.67-0.812-1.176-1.808-1.516-2.985c-0.341-1.179-0.512-2.523-0.512-4.037
			c0-1.551,0.164-2.935,0.493-4.156s0.806-2.251,1.433-3.089c0.625-0.838,1.392-1.476,2.297-1.916
			c0.905-0.439,1.928-0.66,3.069-0.66c0.93,0,1.792,0.16,2.585,0.483c0.793,0.322,1.476,0.797,2.045,1.424
			c0.57,0.626,1.018,1.395,1.339,2.307c0.323,0.912,0.484,1.95,0.484,3.114v2.047H251.105z M255.979,286.419
			c-0.646,0-1.231,0.087-1.758,0.26c-0.526,0.173-0.992,0.465-1.395,0.874c-0.402,0.409-0.741,0.951-1.014,1.629
			c-0.272,0.676-0.465,1.515-0.577,2.519h8.631c0-0.941-0.105-1.745-0.316-2.408c-0.211-0.662-0.497-1.208-0.856-1.637
			c-0.36-0.427-0.775-0.741-1.246-0.939C256.977,286.519,256.487,286.419,255.979,286.419z"/>
		<path fill="#A86E44" d="M266.954,294.007c0-1.462,0.175-2.786,0.526-3.97c0.351-1.185,0.856-2.196,1.516-3.034
			c0.66-0.836,1.475-1.483,2.441-1.942s2.064-0.688,3.292-0.688c1.005,0,1.873,0.087,2.604,0.26c0.731,0.176,1.352,0.423,1.86,0.744
			l-0.818,1.824c-0.198-0.087-0.403-0.178-0.613-0.271c-0.211-0.093-0.45-0.176-0.717-0.251c-0.267-0.074-0.567-0.137-0.902-0.186
			c-0.335-0.05-0.726-0.074-1.172-0.074c-0.831,0-1.587,0.146-2.27,0.437c-0.682,0.291-1.268,0.743-1.758,1.358
			c-0.49,0.613-0.868,1.4-1.134,2.362c-0.267,0.961-0.4,2.104-0.4,3.431c0,1.328,0.13,2.475,0.39,3.441
			c0.261,0.968,0.633,1.765,1.116,2.391c0.484,0.627,1.063,1.087,1.739,1.386c0.675,0.297,1.429,0.446,2.26,0.446
			c0.93,0,1.723-0.102,2.38-0.308c0.657-0.203,1.229-0.438,1.711-0.697l0.818,1.823c-0.521,0.397-1.171,0.702-1.953,0.912
			c-0.782,0.21-1.699,0.316-2.753,0.316c-1.29,0-2.439-0.233-3.45-0.697c-1.011-0.466-1.864-1.122-2.562-1.974
			c-0.698-0.848-1.231-1.869-1.6-3.059C267.138,296.798,266.954,295.471,266.954,294.007z"/>
		<path fill="#A86E44" d="M282.131,284.745h2.512v-4.838l2.455-0.371v5.209h4.892v2.046h-4.892v11.233
			c0,0.695,0.046,1.275,0.14,1.74c0.093,0.464,0.238,0.837,0.437,1.116c0.199,0.279,0.45,0.48,0.754,0.604
			c0.303,0.124,0.673,0.187,1.106,0.187c0.533,0,1.076-0.043,1.627-0.13c0.552-0.086,1.001-0.167,1.349-0.242l0.13,1.934
			c-0.397,0.139-0.89,0.252-1.479,0.346c-0.588,0.092-1.162,0.14-1.72,0.14c-0.77,0-1.454-0.078-2.054-0.233
			c-0.6-0.154-1.103-0.439-1.509-0.855c-0.406-0.414-0.714-0.991-0.923-1.729c-0.209-0.737-0.313-1.695-0.313-2.875v-11.233h-2.94
			L282.131,284.745z"/>
		<path fill="#A86E44" d="M313.158,280.095v23.251h-2.454v-23.251h-7.273v-2.047h16.871v2.047H313.158z"/>
		<path fill="#A86E44" d="M332.672,292.482v-0.707c0-1.004-0.081-1.848-0.242-2.53c-0.161-0.681-0.406-1.233-0.735-1.654
			c-0.328-0.423-0.737-0.724-1.227-0.903c-0.491-0.18-1.069-0.269-1.74-0.269c-0.434,0-0.87,0.033-1.312,0.102
			c-0.438,0.069-0.868,0.164-1.283,0.287c-0.416,0.126-0.809,0.265-1.181,0.421c-0.372,0.154-0.706,0.318-1.004,0.491l-0.614-1.821
			c0.348-0.235,0.743-0.448,1.19-0.634c0.445-0.187,0.915-0.343,1.404-0.475c0.49-0.13,0.992-0.232,1.507-0.306
			c0.514-0.075,1.021-0.112,1.515-0.112c0.931,0,1.778,0.112,2.54,0.335c0.762,0.224,1.413,0.614,1.946,1.172
			c0.535,0.559,0.951,1.314,1.246,2.27c0.297,0.955,0.444,2.163,0.444,3.627v11.57h-1.826l-0.368-2.065
			c-0.212,0.188-0.501,0.419-0.867,0.698c-0.366,0.277-0.805,0.549-1.313,0.809c-0.51,0.261-1.08,0.48-1.714,0.66
			c-0.635,0.18-1.324,0.271-2.068,0.271c-0.845,0-1.574-0.146-2.189-0.438c-0.616-0.292-1.128-0.688-1.537-1.19
			c-0.41-0.502-0.714-1.088-0.913-1.758s-0.297-1.377-0.297-2.121c0-0.756,0.16-1.481,0.483-2.177
			c0.323-0.693,0.778-1.304,1.368-1.832c0.592-0.526,1.29-0.944,2.097-1.255c0.808-0.31,1.696-0.465,2.665-0.465H332.672z
			 M327.553,301.671c0.672,0,1.295-0.1,1.868-0.297c0.571-0.198,1.08-0.431,1.522-0.697c0.441-0.268,0.811-0.53,1.103-0.792
			c0.293-0.26,0.501-0.457,0.626-0.596v-4.947h-3.662c-0.897,0-1.636,0.133-2.215,0.4s-1.04,0.605-1.383,1.014
			c-0.344,0.41-0.582,0.863-0.72,1.358c-0.137,0.496-0.205,0.973-0.205,1.433c0,0.495,0.077,0.936,0.233,1.32
			c0.154,0.384,0.37,0.71,0.645,0.977c0.274,0.266,0.598,0.471,0.972,0.613C326.711,301.601,327.116,301.671,327.553,301.671z"/>
		<path fill="#A86E44" d="M340.874,291.068c0-1.103,0.165-2.075,0.493-2.911c0.328-0.838,0.79-1.535,1.384-2.092
			c0.596-0.559,1.317-0.98,2.166-1.266c0.849-0.284,1.793-0.428,2.835-0.428c0.942,0,1.822,0.124,2.64,0.373h5.95l-0.316,2.046
			h-2.566c0.405,0.546,0.72,1.171,0.941,1.878c0.22,0.708,0.332,1.507,0.332,2.399c0,1.042-0.171,1.979-0.512,2.809
			c-0.342,0.831-0.822,1.535-1.442,2.111s-1.357,1.018-2.213,1.32c-0.855,0.305-1.798,0.456-2.828,0.456
			c-1.066,0-2.033-0.161-2.9-0.483c-0.249,0.297-0.441,0.631-0.577,0.994c-0.138,0.366-0.204,0.786-0.204,1.256
			c0,0.112,0.015,0.252,0.046,0.42c0.031,0.167,0.075,0.334,0.13,0.503c0.056,0.166,0.121,0.327,0.195,0.482
			c0.074,0.154,0.155,0.276,0.242,0.362h5.078c0.941,0,1.786,0.119,2.529,0.354c0.745,0.235,1.37,0.577,1.88,1.023
			c0.507,0.446,0.895,0.985,1.162,1.618c0.267,0.633,0.399,1.345,0.399,2.139c-0.024,0.843-0.232,1.616-0.622,2.316
			c-0.391,0.7-0.938,1.308-1.645,1.822c-0.707,0.514-1.555,0.915-2.546,1.2c-0.989,0.286-2.093,0.427-3.307,0.427
			c-0.904,0-1.812-0.074-2.723-0.223c-0.908-0.147-1.733-0.416-2.471-0.799c-0.736-0.386-1.338-0.909-1.803-1.572
			c-0.463-0.663-0.696-1.511-0.696-2.539c0-0.992,0.208-1.854,0.627-2.586c0.418-0.732,1.126-1.376,2.128-1.934
			c-0.237-0.322-0.457-0.708-0.661-1.153c-0.205-0.447-0.308-0.969-0.308-1.563c0-0.781,0.143-1.436,0.427-1.962
			c0.286-0.528,0.671-1.002,1.154-1.425c-0.781-0.582-1.377-1.323-1.784-2.223C341.079,293.322,340.874,292.272,340.874,291.068z
			 M344.538,303.346c-0.347,0.272-0.653,0.536-0.92,0.79c-0.268,0.254-0.49,0.523-0.67,0.809s-0.316,0.599-0.409,0.939
			s-0.141,0.724-0.141,1.145c0,0.397,0.092,0.754,0.271,1.07c0.18,0.315,0.419,0.589,0.717,0.817
			c0.297,0.229,0.633,0.424,1.005,0.587c0.371,0.16,0.756,0.287,1.153,0.381c0.396,0.092,0.781,0.161,1.153,0.205
			c0.371,0.043,0.699,0.064,0.985,0.064c0.806,0,1.551-0.09,2.231-0.27c0.682-0.181,1.271-0.425,1.767-0.734
			c0.496-0.311,0.886-0.68,1.163-1.107c0.279-0.428,0.42-0.896,0.42-1.404c0-0.46-0.063-0.891-0.188-1.293
			c-0.123-0.403-0.336-0.752-0.641-1.051c-0.304-0.297-0.72-0.53-1.246-0.697c-0.527-0.168-1.193-0.251-2-0.251H344.538z
			 M343.329,291.068c0,0.694,0.091,1.327,0.271,1.897c0.18,0.57,0.453,1.06,0.82,1.47c0.366,0.41,0.825,0.725,1.379,0.949
			c0.553,0.223,1.202,0.335,1.947,0.335c0.721,0,1.361-0.112,1.92-0.335c0.56-0.225,1.032-0.539,1.416-0.949
			c0.387-0.41,0.681-0.899,0.886-1.47c0.206-0.57,0.308-1.203,0.308-1.897c0-0.782-0.118-1.462-0.354-2.045
			c-0.236-0.584-0.56-1.066-0.97-1.451c-0.41-0.386-0.892-0.673-1.444-0.866c-0.554-0.192-1.141-0.287-1.762-0.287
			c-0.635,0-1.221,0.095-1.761,0.287c-0.541,0.193-1.006,0.48-1.399,0.866c-0.392,0.385-0.698,0.867-0.921,1.451
			C343.441,289.606,343.329,290.286,343.329,291.068z"/>
		<path fill="#A86E44" d="M361.354,277.304h2.493v26.042h-2.493V277.304z"/>
		<path fill="#A86E44" d="M370.654,277.267h2.995v2.938h-2.995V277.267z M370.952,284.745h2.492v18.601h-2.492V284.745z"/>
		<path fill="#A86E44" d="M380.271,284.745h2.216l0.185,2.082c1.602-1.637,3.471-2.455,5.608-2.455c1.8,0,3.123,0.539,3.969,1.618
			c0.845,1.08,1.267,2.759,1.267,5.041v12.314h-2.454v-12.314c0-0.868-0.069-1.596-0.206-2.186
			c-0.139-0.589-0.344-1.063-0.618-1.423c-0.273-0.359-0.619-0.617-1.036-0.771c-0.417-0.155-0.899-0.232-1.448-0.232
			c-0.984,0-1.897,0.208-2.737,0.623c-0.841,0.416-1.604,0.95-2.288,1.608v14.695h-2.456V284.745z"/>
		<path fill="#A86E44" d="M401.347,293.747v0.446c0,1.179,0.111,2.232,0.335,3.162c0.223,0.931,0.559,1.714,1.004,2.354
			c0.446,0.639,1.008,1.126,1.684,1.46c0.675,0.335,1.46,0.502,2.354,0.502c0.583,0,1.109-0.04,1.581-0.12
			c0.471-0.081,0.898-0.18,1.282-0.298c0.386-0.119,0.727-0.245,1.024-0.381c0.296-0.137,0.563-0.267,0.8-0.392l0.688,1.896
			c-0.658,0.41-1.444,0.735-2.361,0.977c-0.919,0.243-1.904,0.364-2.959,0.364c-1.289,0-2.426-0.215-3.413-0.644
			c-0.985-0.427-1.813-1.046-2.482-1.858c-0.67-0.812-1.176-1.808-1.518-2.985c-0.34-1.179-0.511-2.523-0.511-4.037
			c0-1.551,0.164-2.935,0.493-4.156s0.806-2.251,1.432-3.089s1.393-1.476,2.298-1.916c0.904-0.439,1.928-0.66,3.069-0.66
			c0.931,0,1.792,0.16,2.585,0.483c0.794,0.322,1.477,0.797,2.047,1.424c0.57,0.626,1.016,1.395,1.338,2.307
			c0.323,0.912,0.485,1.95,0.485,3.114v2.047H401.347z M406.221,286.419c-0.646,0-1.232,0.087-1.759,0.26s-0.991,0.465-1.395,0.874
			c-0.402,0.409-0.741,0.951-1.014,1.629c-0.273,0.676-0.466,1.515-0.578,2.519h8.632c0-0.941-0.105-1.745-0.316-2.408
			c-0.211-0.662-0.495-1.208-0.855-1.637c-0.359-0.427-0.774-0.741-1.246-0.939C407.217,286.519,406.728,286.419,406.221,286.419z"
			/>
	</g>
</g>
<g>
	<g>
		<path fill="#D29E51" d="M219.302,375.102c0-1.228,0.147-2.336,0.44-3.328c0.294-0.993,0.718-1.842,1.271-2.542
			c0.553-0.701,1.235-1.244,2.046-1.629c0.811-0.386,1.73-0.577,2.759-0.577c0.842,0,1.569,0.072,2.182,0.218
			c0.614,0.146,1.133,0.354,1.56,0.624l-0.687,1.529c-0.166-0.075-0.337-0.149-0.514-0.228s-0.377-0.147-0.6-0.21
			c-0.224-0.063-0.475-0.115-0.756-0.156c-0.281-0.041-0.608-0.063-0.982-0.063c-0.697,0-1.331,0.123-1.902,0.367
			c-0.572,0.243-1.063,0.623-1.473,1.138c-0.411,0.514-0.728,1.174-0.951,1.979c-0.224,0.806-0.335,1.765-0.335,2.877
			s0.109,2.072,0.327,2.884c0.218,0.811,0.53,1.479,0.936,2.003c0.405,0.525,0.891,0.913,1.458,1.162
			c0.566,0.248,1.197,0.374,1.894,0.374c0.779,0,1.444-0.085,1.996-0.257c0.551-0.173,1.029-0.366,1.434-0.585l0.686,1.527
			c-0.437,0.333-0.981,0.588-1.637,0.765c-0.654,0.176-1.424,0.265-2.307,0.265c-1.082,0-2.045-0.195-2.892-0.585
			c-0.848-0.39-1.563-0.94-2.147-1.652c-0.584-0.711-1.032-1.566-1.34-2.564C219.457,377.439,219.302,376.328,219.302,375.102z"/>
		<path fill="#D29E51" d="M232.663,375.132c0-1.258,0.146-2.385,0.437-3.383c0.291-0.996,0.704-1.848,1.24-2.55
			c0.535-0.7,1.19-1.238,1.964-1.613c0.774-0.373,1.644-0.561,2.612-0.561c0.956,0,1.831,0.188,2.626,0.561
			c0.795,0.375,1.476,0.913,2.042,1.613c0.566,0.702,1.008,1.554,1.325,2.55c0.317,0.998,0.476,2.125,0.476,3.383
			c0,1.269-0.159,2.401-0.476,3.398c-0.317,0.998-0.759,1.848-1.325,2.55s-1.247,1.236-2.042,1.606
			c-0.796,0.368-1.671,0.553-2.626,0.553c-0.968,0-1.838-0.185-2.612-0.553c-0.774-0.37-1.429-0.904-1.964-1.606
			c-0.536-0.702-0.949-1.552-1.24-2.55C232.809,377.533,232.663,376.4,232.663,375.132z M234.721,375.132
			c0,1.103,0.099,2.053,0.297,2.854c0.199,0.801,0.482,1.464,0.853,1.988c0.37,0.523,0.813,0.913,1.33,1.169
			c0.517,0.254,1.088,0.382,1.713,0.382c0.637,0,1.226-0.128,1.769-0.382c0.542-0.256,1.009-0.646,1.4-1.169
			c0.391-0.524,0.696-1.188,0.916-1.988s0.329-1.751,0.329-2.854c0-1.101-0.11-2.055-0.329-2.86s-0.524-1.471-0.916-1.995
			c-0.391-0.525-0.857-0.912-1.4-1.163c-0.543-0.248-1.131-0.373-1.769-0.373c-0.625,0-1.197,0.125-1.713,0.373
			c-0.516,0.251-0.959,0.638-1.33,1.163c-0.371,0.524-0.654,1.189-0.853,1.995C234.82,373.077,234.721,374.031,234.721,375.132z"/>
		<path fill="#D29E51" d="M249.843,367.337h1.856l0.124,1.403c0.676-0.593,1.409-1.025,2.201-1.302
			c0.79-0.274,1.638-0.413,2.542-0.413c0.896,0,1.672,0.127,2.333,0.383c0.661,0.254,1.168,0.719,1.521,1.395
			c0.624-0.55,1.337-0.985,2.137-1.302c0.801-0.317,1.66-0.476,2.575-0.476c0.666,0,1.27,0.089,1.81,0.266
			c0.541,0.177,1.004,0.483,1.389,0.919c0.385,0.437,0.681,1.029,0.889,1.777s0.312,1.695,0.312,2.837v10.103h-2.088v-10.103
			c0-0.759-0.058-1.399-0.172-1.924c-0.114-0.525-0.283-0.947-0.508-1.264c-0.224-0.317-0.508-0.546-0.852-0.686
			c-0.344-0.141-0.74-0.211-1.188-0.211c-0.771,0-1.475,0.148-2.11,0.444c-0.636,0.295-1.219,0.683-1.75,1.161
			c0.021,0.178,0.039,0.359,0.054,0.546s0.024,0.386,0.024,0.593v11.442h-2.058v-11.63c0-0.935-0.229-1.595-0.688-1.979
			c-0.458-0.385-1.151-0.577-2.078-0.577c-0.813,0-1.573,0.181-2.282,0.538c-0.708,0.358-1.354,0.818-1.937,1.379v12.27h-2.058
			V367.337z"/>
		<path fill="#D29E51" d="M274.943,361.07h2.51v2.464h-2.51V361.07z M275.193,367.337h2.089v15.59h-2.089V367.337z"/>
		<path fill="#D29E51" d="M283.003,367.337h1.857l0.154,1.746c1.343-1.371,2.91-2.058,4.701-2.058c1.51,0,2.618,0.452,3.326,1.355
			c0.708,0.906,1.063,2.314,1.063,4.226v10.32h-2.058v-10.32c0-0.728-0.058-1.338-0.172-1.832c-0.115-0.493-0.288-0.89-0.518-1.191
			c-0.229-0.302-0.519-0.517-0.869-0.647c-0.35-0.131-0.754-0.195-1.214-0.195c-0.825,0-1.589,0.175-2.294,0.522
			c-0.705,0.349-1.344,0.798-1.918,1.349v12.315h-2.058V367.337z"/>
		<path fill="#D29E51" d="M298.967,372.638c0-0.925,0.138-1.737,0.413-2.44c0.275-0.7,0.662-1.286,1.161-1.753
			c0.498-0.469,1.104-0.821,1.815-1.06c0.711-0.24,1.503-0.359,2.375-0.359c0.789,0,1.527,0.104,2.212,0.312h4.987l-0.265,1.715
			h-2.151c0.341,0.458,0.603,0.983,0.788,1.574c0.186,0.593,0.279,1.264,0.279,2.012c0,0.872-0.144,1.658-0.429,2.354
			c-0.286,0.697-0.688,1.286-1.208,1.77c-0.521,0.482-1.139,0.853-1.855,1.106c-0.718,0.256-1.507,0.383-2.37,0.383
			c-0.894,0-1.703-0.137-2.432-0.406c-0.208,0.249-0.369,0.528-0.482,0.835c-0.115,0.307-0.173,0.656-0.173,1.052
			c0,0.093,0.013,0.211,0.04,0.352c0.025,0.14,0.062,0.28,0.109,0.42c0.045,0.14,0.101,0.276,0.162,0.405
			c0.063,0.13,0.132,0.231,0.204,0.304h4.255c0.79,0,1.497,0.099,2.121,0.297c0.623,0.198,1.148,0.483,1.574,0.856
			c0.426,0.375,0.751,0.827,0.974,1.357c0.225,0.53,0.336,1.128,0.336,1.792c-0.021,0.707-0.194,1.354-0.522,1.94
			c-0.327,0.588-0.785,1.098-1.378,1.528c-0.591,0.432-1.302,0.767-2.133,1.007c-0.83,0.237-1.754,0.357-2.771,0.357
			c-0.759,0-1.521-0.063-2.282-0.187c-0.764-0.124-1.454-0.348-2.072-0.67c-0.618-0.323-1.121-0.761-1.51-1.318
			c-0.389-0.556-0.584-1.266-0.584-2.127c0-0.831,0.175-1.554,0.525-2.167c0.349-0.614,0.943-1.154,1.782-1.621
			c-0.198-0.271-0.382-0.594-0.553-0.968c-0.172-0.374-0.257-0.81-0.257-1.31c0-0.654,0.119-1.202,0.358-1.644
			c0.238-0.442,0.561-0.84,0.967-1.193c-0.655-0.488-1.154-1.109-1.497-1.863C299.14,374.527,298.967,373.646,298.967,372.638z
			 M302.039,382.927c-0.291,0.229-0.549,0.45-0.772,0.663c-0.223,0.213-0.41,0.438-0.561,0.679
			c-0.151,0.238-0.265,0.501-0.343,0.787c-0.078,0.285-0.117,0.605-0.117,0.959c0,0.332,0.075,0.631,0.226,0.896
			c0.15,0.264,0.35,0.493,0.599,0.686c0.251,0.191,0.531,0.356,0.842,0.49c0.313,0.136,0.634,0.242,0.968,0.32
			c0.332,0.079,0.654,0.135,0.966,0.172c0.313,0.036,0.588,0.056,0.826,0.056c0.676,0,1.3-0.077,1.872-0.228
			c0.57-0.15,1.064-0.356,1.48-0.615c0.416-0.261,0.74-0.569,0.976-0.928c0.232-0.359,0.349-0.751,0.349-1.178
			c0-0.384-0.052-0.746-0.154-1.082c-0.104-0.34-0.284-0.632-0.539-0.882c-0.254-0.25-0.603-0.444-1.045-0.584
			c-0.44-0.142-1-0.212-1.675-0.212H302.039z M301.025,372.638c0,0.583,0.075,1.112,0.227,1.59c0.151,0.479,0.38,0.89,0.688,1.232
			c0.306,0.342,0.691,0.607,1.155,0.794c0.463,0.188,1.008,0.281,1.633,0.281c0.604,0,1.139-0.094,1.609-0.281
			c0.468-0.187,0.863-0.452,1.187-0.794c0.322-0.343,0.569-0.754,0.742-1.232c0.172-0.478,0.258-1.007,0.258-1.59
			c0-0.655-0.101-1.226-0.298-1.715c-0.197-0.488-0.468-0.894-0.812-1.216s-0.747-0.563-1.211-0.725
			c-0.463-0.16-0.956-0.242-1.476-0.242c-0.532,0-1.024,0.082-1.478,0.242c-0.453,0.161-0.843,0.402-1.172,0.725
			c-0.327,0.322-0.585,0.728-0.772,1.216C301.118,371.412,301.025,371.982,301.025,372.638z"/>
		<path fill="#D29E51" d="M331.519,378.78c0,0.613-0.115,1.19-0.349,1.731c-0.231,0.54-0.562,1.013-0.989,1.418
			c-0.429,0.405-0.951,0.725-1.57,0.959c-0.617,0.232-1.316,0.351-2.096,0.351c-0.489,0-0.971-0.028-1.441-0.085
			c-0.474-0.058-0.928-0.138-1.365-0.243c-0.437-0.103-0.845-0.225-1.224-0.366c-0.379-0.139-0.709-0.293-0.989-0.459l0.498-1.746
			c0.364,0.166,0.71,0.32,1.036,0.459c0.328,0.142,0.666,0.266,1.014,0.375c0.349,0.108,0.73,0.194,1.146,0.257
			c0.415,0.062,0.889,0.094,1.418,0.094c0.468,0,0.879-0.065,1.232-0.194c0.353-0.13,0.648-0.313,0.888-0.546
			c0.239-0.234,0.421-0.504,0.546-0.811s0.188-0.642,0.188-1.007c0-0.415-0.071-0.779-0.212-1.091
			c-0.142-0.312-0.349-0.589-0.626-0.833c-0.274-0.244-0.62-0.463-1.039-0.655c-0.415-0.193-0.905-0.382-1.468-0.569
			c-0.635-0.198-1.221-0.447-1.758-0.749c-0.535-0.302-1-0.641-1.39-1.021c-0.392-0.377-0.697-0.794-0.921-1.246
			s-0.337-0.923-0.337-1.411c0-1.392,0.435-2.468,1.302-3.227c0.868-0.758,2.092-1.139,3.672-1.139c0.998,0,1.865,0.107,2.604,0.319
			c0.736,0.214,1.324,0.43,1.761,0.647l-0.452,1.684c-0.302-0.114-0.587-0.229-0.856-0.344c-0.271-0.113-0.558-0.215-0.858-0.305
			c-0.302-0.087-0.634-0.158-0.998-0.21c-0.363-0.051-0.779-0.077-1.246-0.077c-0.978,0-1.7,0.217-2.168,0.646
			c-0.468,0.433-0.701,1.017-0.701,1.755c0,0.28,0.045,0.563,0.133,0.85c0.088,0.285,0.243,0.561,0.461,0.826
			c0.22,0.265,0.513,0.512,0.883,0.74c0.369,0.229,0.835,0.432,1.398,0.608c1.696,0.52,2.934,1.176,3.709,1.971
			C331.131,376.934,331.519,377.813,331.519,378.78z"/>
		<path fill="#D29E51" d="M335.075,375.132c0-1.258,0.144-2.385,0.435-3.383c0.292-0.996,0.705-1.848,1.24-2.55
			c0.536-0.7,1.19-1.238,1.966-1.613c0.772-0.373,1.643-0.561,2.609-0.561c0.957,0,1.832,0.188,2.628,0.561
			c0.795,0.375,1.475,0.913,2.042,1.613c0.566,0.702,1.008,1.554,1.324,2.55c0.317,0.998,0.476,2.125,0.476,3.383
			c0,1.269-0.158,2.401-0.476,3.398c-0.316,0.998-0.758,1.848-1.324,2.55c-0.567,0.702-1.247,1.236-2.042,1.606
			c-0.796,0.368-1.671,0.553-2.628,0.553c-0.967,0-1.837-0.185-2.609-0.553c-0.775-0.37-1.43-0.904-1.966-1.606
			c-0.535-0.702-0.948-1.552-1.24-2.55C335.219,377.533,335.075,376.4,335.075,375.132z M337.132,375.132
			c0,1.103,0.099,2.053,0.298,2.854c0.198,0.801,0.482,1.464,0.852,1.988c0.371,0.523,0.815,0.913,1.33,1.169
			c0.517,0.254,1.088,0.382,1.714,0.382c0.636,0,1.227-0.128,1.769-0.382c0.543-0.256,1.01-0.646,1.4-1.169
			c0.391-0.524,0.696-1.188,0.915-1.988c0.22-0.801,0.329-1.751,0.329-2.854c0-1.101-0.109-2.055-0.329-2.86
			c-0.219-0.806-0.524-1.471-0.915-1.995c-0.391-0.525-0.857-0.912-1.4-1.163c-0.542-0.248-1.133-0.373-1.769-0.373
			c-0.626,0-1.197,0.125-1.714,0.373c-0.515,0.251-0.959,0.638-1.33,1.163c-0.369,0.524-0.653,1.189-0.852,1.995
			C337.23,373.077,337.132,374.031,337.132,375.132z"/>
		<path fill="#D29E51" d="M351.365,375.132c0-1.258,0.146-2.385,0.437-3.383c0.292-0.996,0.704-1.848,1.24-2.55
			c0.534-0.7,1.189-1.238,1.964-1.613c0.774-0.373,1.645-0.561,2.611-0.561c0.957,0,1.832,0.188,2.627,0.561
			c0.795,0.375,1.476,0.913,2.043,1.613c0.565,0.702,1.008,1.554,1.324,2.55c0.317,0.998,0.476,2.125,0.476,3.383
			c0,1.269-0.158,2.401-0.476,3.398c-0.316,0.998-0.759,1.848-1.324,2.55c-0.567,0.702-1.248,1.236-2.043,1.606
			c-0.795,0.368-1.67,0.553-2.627,0.553c-0.967,0-1.837-0.185-2.611-0.553c-0.774-0.37-1.43-0.904-1.964-1.606
			c-0.536-0.702-0.948-1.552-1.24-2.55C351.511,377.533,351.365,376.4,351.365,375.132z M353.424,375.132
			c0,1.103,0.099,2.053,0.297,2.854s0.482,1.464,0.853,1.988c0.37,0.523,0.814,0.913,1.33,1.169
			c0.517,0.254,1.087,0.382,1.714,0.382c0.636,0,1.226-0.128,1.769-0.382c0.541-0.256,1.009-0.646,1.4-1.169
			c0.391-0.524,0.696-1.188,0.915-1.988c0.22-0.801,0.329-1.751,0.329-2.854c0-1.101-0.109-2.055-0.329-2.86
			c-0.219-0.806-0.524-1.471-0.915-1.995c-0.392-0.525-0.859-0.912-1.4-1.163c-0.543-0.248-1.133-0.373-1.769-0.373
			c-0.627,0-1.197,0.125-1.714,0.373c-0.516,0.251-0.96,0.638-1.33,1.163c-0.37,0.524-0.654,1.189-0.853,1.995
			S353.424,374.031,353.424,375.132z"/>
		<path fill="#D29E51" d="M368.546,367.337h1.856l0.155,1.746c1.343-1.371,2.909-2.058,4.7-2.058c1.509,0,2.619,0.452,3.326,1.355
			c0.707,0.906,1.063,2.314,1.063,4.226v10.32h-2.059v-10.32c0-0.728-0.058-1.338-0.173-1.832c-0.114-0.493-0.286-0.89-0.517-1.191
			c-0.229-0.302-0.52-0.517-0.869-0.647s-0.753-0.195-1.213-0.195c-0.824,0-1.59,0.175-2.294,0.522
			c-0.705,0.349-1.344,0.798-1.918,1.349v12.315h-2.059V367.337z"/>
	</g>
</g>
<path fill="#D29E51" d="M299.794,167.11c-43.126,0-78.211-35.085-78.211-78.211c0-43.125,35.085-78.211,78.211-78.211
	s78.211,35.085,78.211,78.211C378.005,132.025,342.92,167.11,299.794,167.11z M299.794,19.616c-38.203,0-69.284,31.08-69.284,69.283
	s31.081,69.284,69.284,69.284s69.283-31.081,69.283-69.284S337.997,19.616,299.794,19.616z"/>
</svg>
